<svg width="16" height="16" viewBox="0 0 16 16" fill="none" xmlns="http://www.w3.org/2000/svg">
<path d="M13 9H14C14.1326 9 14.2598 8.94732 14.3536 8.85355C14.4473 8.75979 14.5 8.63261 14.5 8.5C14.5 8.36739 14.4473 8.24021 14.3536 8.14645C14.2598 8.05268 14.1326 8 14 8H13V7H14C14.1326 7 14.2598 6.94732 14.3536 6.85355C14.4473 6.75978 14.5 6.63261 14.5 6.5C14.5 6.36739 14.4473 6.24021 14.3536 6.14645C14.2598 6.05268 14.1326 6 14 6H12.975C12.8646 4.90259 12.3933 3.8728 11.635 3.07187L12.8538 1.85375C12.9002 1.80729 12.9371 1.75214 12.9622 1.69145C12.9873 1.63075 13.0003 1.5657 13.0003 1.5C13.0003 1.4343 12.9873 1.36925 12.9622 1.30855C12.9371 1.24785 12.9002 1.1927 12.8538 1.14625C12.8073 1.09979 12.7521 1.06294 12.6914 1.0378C12.6308 1.01266 12.5657 0.999722 12.5 0.999722C12.4343 0.999722 12.3692 1.01266 12.3086 1.0378C12.2479 1.06294 12.1927 1.09979 12.1462 1.14625L10.8781 2.415C10.0365 1.81964 9.03093 1.49993 8 1.49993C6.96907 1.49993 5.96351 1.81964 5.12187 2.415L3.85375 1.14625C3.75993 1.05243 3.63268 0.999722 3.5 0.999722C3.36732 0.999722 3.24007 1.05243 3.14625 1.14625C3.05243 1.24007 2.99972 1.36732 2.99972 1.5C2.99972 1.63268 3.05243 1.75993 3.14625 1.85375L4.365 3.07187C3.6067 3.8728 3.13544 4.90259 3.025 6H2C1.86739 6 1.74021 6.05268 1.64645 6.14645C1.55268 6.24021 1.5 6.36739 1.5 6.5C1.5 6.63261 1.55268 6.75978 1.64645 6.85355C1.74021 6.94732 1.86739 7 2 7H3V8H2C1.86739 8 1.74021 8.05268 1.64645 8.14645C1.55268 8.24021 1.5 8.36739 1.5 8.5C1.5 8.63261 1.55268 8.75979 1.64645 8.85355C1.74021 8.94732 1.86739 9 2 9H3V9.5C3 9.66875 3.00875 9.83562 3.025 10H2C1.86739 10 1.74021 10.0527 1.64645 10.1464C1.55268 10.2402 1.5 10.3674 1.5 10.5C1.5 10.6326 1.55268 10.7598 1.64645 10.8536C1.74021 10.9473 1.86739 11 2 11H3.23C3.54904 12.0152 4.18366 12.9021 5.04155 13.5318C5.89944 14.1614 6.93584 14.501 8 14.501C9.06416 14.501 10.1006 14.1614 10.9584 13.5318C11.8163 12.9021 12.451 12.0152 12.77 11H14C14.1326 11 14.2598 10.9473 14.3536 10.8536C14.4473 10.7598 14.5 10.6326 14.5 10.5C14.5 10.3674 14.4473 10.2402 14.3536 10.1464C14.2598 10.0527 14.1326 10 14 10H12.975C12.9913 9.83562 13 9.66875 13 9.5V9ZM8 2.5C8.97381 2.50121 9.91381 2.85724 10.6441 3.50146C11.3744 4.14568 11.8448 5.03394 11.9675 6H4.03C4.15271 5.03351 4.62356 4.14491 5.35435 3.50064C6.08515 2.85636 7.02576 2.5006 8 2.5ZM8.5 13.4675V8.5C8.5 8.36739 8.44732 8.24021 8.35355 8.14645C8.25979 8.05268 8.13261 8 8 8C7.86739 8 7.74021 8.05268 7.64645 8.14645C7.55268 8.24021 7.5 8.36739 7.5 8.5V13.4675C6.53394 13.3448 5.64568 12.8744 5.00146 12.1441C4.35724 11.4138 4.00121 10.4738 4 9.5V7H12V9.5C11.9988 10.4738 11.6428 11.4138 10.9985 12.1441C10.3543 12.8744 9.46606 13.3448 8.5 13.4675Z" fill="#1C1C1C"/>
</svg>
