<svg width="10" height="16" viewBox="0 0 10 16" fill="none" xmlns="http://www.w3.org/2000/svg">
<path d="M7.15999 15.1667H2.83999C1.57999 15.1667 0.659994 14.64 0.306661 13.7333C-0.0600062 12.7867 0.279994 11.6133 1.15999 10.82L4.25333 8L1.15999 5.18C0.279994 4.38667 -0.0600062 3.21333 0.306661 2.26667C0.659994 1.35333 1.57999 0.833334 2.83999 0.833334H7.15999C8.41999 0.833334 9.33999 1.36 9.69333 2.26667C10.06 3.21333 9.71999 4.38667 8.83999 5.18L5.74666 8L8.84666 10.82C9.71999 11.6133 10.0667 12.7867 9.69999 13.7333C9.33999 14.64 8.41999 15.1667 7.15999 15.1667ZM4.99999 8.67333L1.83333 11.5533C1.27333 12.0667 1.02666 12.8133 1.23999 13.3667C1.43999 13.88 2.00666 14.1667 2.83999 14.1667H7.15999C7.99333 14.1667 8.55999 13.8867 8.75999 13.3667C8.97333 12.8133 8.73333 12.0667 8.16666 11.5533L4.99999 8.67333ZM2.83999 1.83333C2.00666 1.83333 1.43999 2.11333 1.23999 2.63333C1.02666 3.18667 1.26666 3.93333 1.83333 4.44667L4.99999 7.32667L8.16666 4.44667C8.72666 3.93333 8.97333 3.18667 8.75999 2.63333C8.55999 2.12 7.99333 1.83333 7.15999 1.83333H2.83999Z" fill="#292D32"/>
</svg>
